<svg xmlns="http://www.w3.org/2000/svg" viewBox="0 0 811.11 265.13"><g id="Capa_2" data-name="Capa 2"><g id="Capa_1-2" data-name="Capa 1"><path d="M136.24,0c11.56,0,19.41,7.09,19.45,21.72.05,16-17.84,62.65-29.36,78-3,4.09-5.77,5.8-7.47,5.81-2.72,0-2.73-5.1,1.67-12.26,9.48-15.34,30.13-49.08,30.06-72.56,0-11.23-5.49-16-14.34-15.95C91.68,4.9,4.54,102.81,4.43,180.05c.06,21.43,9.66,44.54,36.2,44.46C86.56,224.37,145.53,148,173,114.21c3-3.75,6.79-2.4,3.4,2C159.78,136.36,88.28,229.8,41,230,10.36,230,.08,205.57,0,178-.23,102.15,87.92.49,136.24,0Z"/><path d="M186.22,101.24a3.28,3.28,0,0,1,3.07,3.05c0,3.06-2.69,8.52-11.87,12.29a16.78,16.78,0,0,0-1,6.46,5,5,0,0,0,5.12,5.09c4.76,0,22.43-9.59,35.3-28.69,2-3.06,2.37-3.75,3.73-3.75a1.84,1.84,0,0,1,1.71,1.7c0,1.36-9.79,28.27-10.12,30,.67-2,23.37-35.12,29.49-35.47,1,0,3.07.67,3.08,4.07,0,3.06-1,10.89-1,12.93,0,5.44,3.09,6.11.71,7.48-.68.35-1.71-1-2-2A29.62,29.62,0,0,1,241,105.5c0-2.39.65-9.53.65-9.87-5.78,1.72-20,20.81-28.12,37.85-5.07,10.56-4.38,13.62-7.1,13.63-1.71,0-2.39-1-2.4-3.05,0-11.57,5-22.82,8.41-33.71-8.14,7.85-21,22.18-32.26,22.21-4.76,0-8.17-2.7-8.19-9.16C172,110.81,182.48,101.25,186.22,101.24Zm-8.12,13c1.7,0,9.5-8.87,7.45-8.53C183.85,105.67,178.77,112.15,178.1,114.19Z"/><path d="M251.28,124.52c2.66-19.74,20-28,26.45-28,2.73,0,3.75,2,3.76,4.07,0,7.83-13.55,18.75-22.06,19.12-1.36.68-2,3.07-2,5.45,0,6.12,1.73,10.2,8.19,10.18,9.19,0,27.88-7.23,45.53-20.55,2.72-2,5.44-3.42,6.12-3.42,1,0,.34,1.36-4.07,5.12-9.84,8.53-34.63,23.24-47.9,23.28C257.11,139.81,250,134.05,251.28,124.52Zm9.16-7.85c9.52-2.75,17.32-9.92,17.65-16C271,102.68,263.14,109.51,260.44,116.67Z"/><path d="M360.42,98.67c0,6.12-4.38,15.66-8.43,25.88,9.17-6.49,17.65-14.68,23.43-14.7s4.12,10.2,4.13,13.94c0,3.4.36,6.46,3.76,6.45,3.74,0,11.56-2.41,19.36-10.26,4.07-4.1,9.16-10.24,9.84-10.24.34,0,.68.34,1,.68,0,4.08-20,22.85-30.55,22.89-6.13,0-6.48-6.11-6.5-11.89,0-2,1.33-8.17-1.73-8.16-2.38,0-10.87,6.49-13.24,8.88-9.16,8.88-12.2,16.71-15.94,16.72-2,0-3.75-1.35-3.76-4.41,0-6.8,9.46-22.14,13.85-35.43-1.71-1.35-5.78,3.09-7.48,4.45-20.69,19.8-30.14,44.32-36.61,44.34-3.06,0-3.41-3.39-3.42-6.11,0-5.11,5.37-25.88,12.8-43.25C322,96.07,323.32,94,326,94a2.85,2.85,0,0,1,3.07,3c0,5.45-13.51,32.71-15.85,44.62,6.77-8.52,35.58-47.06,43.4-47.08C358.36,94.59,360.41,95.61,360.42,98.67Z"/><path d="M400.66,130.87c0-10.21,13.18-30.66,22.71-30.69,2,0,2.72.67,4.76.67,4.08,0,12.92-3.11,17-3.12,4.77,0,7.16,2.7,7.17,7.47,0,5.1-4.37,16.68-6.06,22.13,4.75-4.44,20.7-20.14,28.86-20.16,6.47,0,1.74,13.26,8.55,13.24,5.44,0,15-6.85,18.69-8.9,4.07-2.4,2,.33.68,1.7-7.12,7.16-16.3,10.25-19.7,10.26-3.74,0-6.47-2.36-7.17-7.12-.35-2.38.32-6.12-2.06-6.12-1.7,0-7.81,4.11-9.17,5.13-14.6,10.94-19,22.18-23.75,22.19-1.36,0-2.73-2-2.73-3.05,0-5.11,8.77-25.21,8.76-30.31,0-2.38-1.38-3.4-4.1-3.39-4.42,0-9.52,1.73-12.92,2.42-.33,3.07,1,5.44,1.05,8.5,0,12.59-14.55,28.29-23.05,28.31C404.09,140.05,400.68,137,400.66,130.87Zm5.45,0c0,2.05.69,3.74,2.73,3.74,4.42,0,16-7.54,18.31-20.13a25.78,25.78,0,0,0,.33-5.11c-2,.69-1.35,4.09-3.73,4.1-1,0-.69-1-.69-1.7,0-2.38,1-4.43,1.34-7.83C414.21,109.39,406.43,123.71,406.11,130.85Z"/><path d="M505.37,103.67c2.38-1.36,5.1-1,5.11,2.37a6.51,6.51,0,0,1-1,3.41c-2.37,4.09-3.37,8.85-3.36,14.64,0,7.14,5.14,9.51,11.26,9.49a48.93,48.93,0,0,0,15.3-3.11A126.22,126.22,0,0,0,569,110.63a1.2,1.2,0,0,1,.68.33v1c0,2.38-37.34,26.65-55,26.7-9.52,0-15.32-6.42-15.35-15.26C499.28,115.26,504,104.36,505.37,103.67Zm8.44-21.46c2,0,3.41,1,3.41,3.06a4.73,4.73,0,0,1-4.4,4.43c-1.71,0-2.73-1.35-2.74-3.39A3.88,3.88,0,0,1,513.81,82.21Z"/><path d="M559.54,127.67c0-7.83,15.22-29,26.79-28.66,5.45,0,6.15,6.44,6.49,9.16a28.12,28.12,0,0,1,4.77-.35c4.08,0,5.1,1.68,5.12,7.13,0,2.38,0,5.44,0,8.16,0,6.47,1.06,13.27,7.52,13.25,16.67-.05,37-14.4,49.94-25.33,2.37-2,2,1,1,2C647,127.4,623.54,140.4,610.61,140.44c-10.88,0-11.94-10.51-12-21.06,0-1.7,1-7.48-1.38-7.48-3.74,0-23.75,21.17-32.26,21.19C561.6,133.1,559.55,131.07,559.54,127.67Zm30.22-18.81c0-2-.35-5.44-2.73-5.43-4.43,0-14.6,10.25-20.35,22.51C571.1,124.57,589.78,112.61,589.76,108.86Z"/><path d="M217.68,183.35V182l25.19-.07c10.85,0,18.3,4.2,22.05,10.83a20,20,0,0,1,2.83,10.29c0,5.83-4.71,11.94-11.44,15a29.27,29.27,0,0,1-12,2.3l-.81.11,25.8,39.26a7.57,7.57,0,0,0,6.81,3.59v1.4l-2.7.07-3.29.11q-3.64,0-7.94-5.15l-8.46-12.28q-5.61-8.31-17.24-27l-7.6,0,.11,37.76.17,2a3.92,3.92,0,0,0,.71,1.94l.48.43a10.48,10.48,0,0,0,2,.53l2.65.27v1.4l-16.78.1v-1.45a7.22,7.22,0,0,0,4-1,3.15,3.15,0,0,0,1-2.27l.21-2.64-.21-67.92a9.18,9.18,0,0,0-.11-1.41l-.16-1c-.39-2-1.15-3-3-3.39Zm13.82,1.41a3.1,3.1,0,0,0-2.48,2.49l-.21,2.86.09,27.68,14.24,0c11.17,0,18-6.42,18-14.68,0-10.3-4.81-18.92-18.24-18.88C239,184.2,233.49,184.11,231.5,184.76Z"/><path d="M306.79,184.05c-2.59,0-4,.28-4.26.88a5,5,0,0,0-1.07,2.81l-.16,3.13.09,26.7,25.73-.08c3.83,0,5.07-1.79,5.05-8.27h2.21l.06,19h-2.05c0-5.61-1.54-8.41-5.26-8.4l-25.74.08.12,37.34.06,2c0,1.78.71,2.86,2.86,3.07l2.59.15,25-.07a21.31,21.31,0,0,0,5.07-.72c3.62-.93,4.91-1.74,6.79-5.2a29.28,29.28,0,0,0,1.87-3.89l2-.49-3.63,12.47-53.41.16v-1.4a7.11,7.11,0,0,0,4-1,3.21,3.21,0,0,0,1-2.27l.21-2.65-.21-68a10.64,10.64,0,0,0-.11-1.41l-.17-1c-.38-2-1.14-3-3-3.39l-2.21-.53v-1.29l53.74-.17,3.23,14.24-2.22-.64-2-4.75c-1.73-3.88-3.14-6.57-8.81-6.55Z"/><path d="M367.57,256.86l-.2-67.65a10.34,10.34,0,0,0-.11-1.4c-.06-.38-.17-.92-.22-1.57a3.54,3.54,0,0,0-1.14-2,3,3,0,0,0-1.79-.8l-2.26-.54v-1.29l17.27-.05v1.29c-4.8,0-5.34,1.53-5.81,4.39l-.26,3.4.2,66.36.06,1.13.16,1.08.06.65a2.93,2.93,0,0,0,.54,1.07,3.68,3.68,0,0,0,2.16,1.08l2.48.21,25-.08c3.89,0,7-.78,9.17-2.35a11.17,11.17,0,0,0,2.47-3.19l2.36-4.11,1.78-.65-3.63,12.47-53.74.17v-1.3l.43-.11,1.83-.43c1.67-.44,2.54-1.25,3-3.36Z"/><path d="M433.52,182.7v-1.3l16.62-.05v1.3l-2.21.49c-1.78.43-2.64.92-3.06,3.46l-.21,2.86.2,68.14.17,2c.22,1.67.77,2.58,2.87,3l2.48.21v1.4l-16.3,0v-1.4a7.22,7.22,0,0,0,4-1,3.15,3.15,0,0,0,1-2.27l.21-2.64-.2-68a10.31,10.31,0,0,0-.12-1.4l-.16-1c-.38-2-1.14-3-3-3.39Z"/><path d="M534.41,258.57c-4.89,4.92-14,6.52-29.6,6.56-14.46.05-27.59-8.92-34.81-22.33a42.58,42.58,0,0,1-5.46-20.6c0-9.87,4.26-20.51,11.84-29.17s17.87-14.08,29.14-14.11c13.33,0,24.46,4.72,29.6,10.54l-1.38,8.63-1.62-1c-1.31-5-6-10.51-13.91-13.93a31.7,31.7,0,0,0-12.84-2.56c-14.52.05-24.79,9.63-29.72,21.57A43.49,43.49,0,0,0,472,218.84c0,18.93,9.43,32.34,23,39.1A45.94,45.94,0,0,0,515.76,263c4.1,0,13.1-2,13.09-4.57l-.05-17.59a10.08,10.08,0,0,0-1.09-5.07,2.65,2.65,0,0,0-2-1l-2.43-.21v-1.29l16.56-.05v1.29c-4.31,0-5.49,1.85-5.48,6.82Z"/><path d="M554,182.33V181l16.62,0v1.29l-2.21.49c-1.78.44-2.64.93-3.06,3.47l-.21,2.86.21,68.14.16,2c.22,1.67.77,2.59,2.87,3l2.48.21v1.41l-16.29.05V262.5a7.14,7.14,0,0,0,4-1,3.19,3.19,0,0,0,1-2.27l.2-2.64-.2-68a10.64,10.64,0,0,0-.11-1.41l-.17-1c-.38-2-1.14-3-3-3.39Z"/><path d="M624.33,178.56c15.16-.05,28.62,8.27,36.22,21.52a43.77,43.77,0,0,1-15,58.75,39.9,39.9,0,0,1-20.91,5.94,35.7,35.7,0,0,1-15.61-3.4,37.68,37.68,0,0,1-12.65-9.46A46.45,46.45,0,0,1,585,221.84c0-14.84,7.25-29.21,19.37-37.23A35.56,35.56,0,0,1,624.33,178.56ZM592.09,222.3c0,13.87,6.4,27,16.62,34.48a26.86,26.86,0,0,0,16.2,5.56c17.21,0,27.22-9.25,31.34-21.56a60.67,60.67,0,0,0,3-19.33,43.92,43.92,0,0,0-18.77-35.23c-5.46-3.76-10.75-5.63-15.83-5.61-15.16,0-24.84,9.19-29.28,22.1A60.3,60.3,0,0,0,592.09,222.3Z"/><path d="M680.76,256.24l0-.16-.06-.38-.06-.65v-.32l.11-.7a2.05,2.05,0,0,1,.7-1l.16-.16a2.74,2.74,0,0,1,2.37-.5,3,3,0,0,1,1.63,1.78l0,1.3a1.77,1.77,0,0,1-.65,1.13,1.36,1.36,0,0,0-.27.38l.17.27.27.27,1.73,1.29c3.46,2.58,7.83,3.86,13.17,3.84q21.78-.06,21.74-18.84c0-8.25-5-15.42-19.59-21s-20-11.27-20-20.76c0-8,1.2-13.17,5-17.28s9.8-6.34,17.73-6.37c7.07,1.06,11.12,3.64,14.1,7.08a7.28,7.28,0,0,1,2.17,4.9,5.61,5.61,0,0,1-.42,2.43l-.06.11a1.14,1.14,0,0,1-.37.87,2.39,2.39,0,0,1-1,.81l-.17.11-1.13.16a2.65,2.65,0,0,1-2.11-1.5,6.85,6.85,0,0,1-.11-1.24,2.6,2.6,0,0,1,1.4-2.06.36.36,0,0,0,.38-.27v-.32l-1-1.62a7.42,7.42,0,0,0-.92-1.34,11.72,11.72,0,0,0-3-2.8c-2.81-1.77-6.7-2.62-11.66-2.61-9.93,0-15.2,5.93-15.17,17.58,0,8,3.44,11.81,19,17.37s21.41,14.4,21.44,25.67c0,14.46-9.1,22.85-24.42,22.9-6.86,0-11.82-.72-15-2.22a11.73,11.73,0,0,1-5.89-5.6Z"/><path d="M795.59,251.2l-11-32.77-22.23.06-10.2,32.19-1,3.83a18.83,18.83,0,0,0-.63,4.48,2.5,2.5,0,0,0,.33,1.62c.65.86,2.21,1.29,4.7,1.28v1.41l-15,0v-1.4a7.89,7.89,0,0,0,4.85-1.31,13.16,13.16,0,0,0,2.63-4.7l1.82-5.24,22-69.5,4.36-2.72,26,74.38,1.68,4.15a8.55,8.55,0,0,0,2.17,3.45,10.65,10.65,0,0,0,2.76,1.07l2.26.2v1.41l-18.29.05v-1.4c2.16,0,3.67-.44,4.53-1.31a3.16,3.16,0,0,0,.32-1.46,13.66,13.66,0,0,0-.82-4.15Zm-11.76-35.09-10.62-31.8-10.1,31.86Z"/></g></g></svg>