<svg xmlns="http://www.w3.org/2000/svg" viewBox="0 0 861 283.99"><g id="Capa_2" data-name="Capa 2"><g id="Capa_1-2" data-name="Capa 1"><path d="M134,189.07a70.23,70.23,0,0,1-.62-9C133.49,102.81,220.63,4.9,265.2,4.76c8.85,0,14.31,4.72,14.34,16,.07,23.48-20.58,57.22-30.06,72.56-4.4,7.16-4.38,12.26-1.66,12.26,1.7,0,4.42-1.72,7.47-5.81,11.52-15.35,29.41-62,29.36-78C284.61,7.09,276.76,0,265.19,0,216.88.49,128.73,102.15,129,178a94.63,94.63,0,0,0,1,14.16A8.11,8.11,0,0,1,134,189.07Z"/><path d="M301.94,114.21C274.48,148,215.52,224.37,169.58,224.51a36.32,36.32,0,0,1-13.9-2.54c0,.75-.08,1.5-.09,2.25a8.83,8.83,0,0,1-.69,3.37,44.42,44.42,0,0,0,15,2.36c47.29-.14,118.8-93.59,135.41-113.71C308.74,111.81,305,110.46,301.94,114.21Z"/><path d="M294.85,131.58c0-10.21,13.18-30.66,22.71-30.69,2,0,2.72.67,4.76.67,4.09,0,12.92-3.1,17-3.12,4.76,0,7.15,2.7,7.16,7.47,0,5.1-4.37,16.68-6.05,22.13,4.75-4.44,20.69-20.13,28.85-20.16,6.47,0,1.75,13.26,8.55,13.24,5.44,0,15-6.85,18.69-8.9,4.07-2.39,2,.34.68,1.7-7.12,7.17-16.3,10.26-19.7,10.27-3.74,0-6.47-2.36-7.17-7.13-.34-2.38.32-6.12-2.06-6.11-1.7,0-7.81,4.1-9.17,5.13-14.59,10.93-19,22.17-23.75,22.18-1.36,0-2.72-2-2.73-3,0-5.1,8.77-25.2,8.76-30.31,0-2.38-1.37-3.4-4.1-3.39-4.42,0-9.52,1.73-12.92,2.42-.33,3.07,1,5.44,1.05,8.51,0,12.59-14.55,28.28-23.05,28.31C298.29,140.76,294.87,137.71,294.85,131.58Zm5.45,0c0,2.05.69,3.75,2.73,3.74,4.43,0,16-7.53,18.31-20.13a25.72,25.72,0,0,0,.33-5.1c-2,.68-1.35,4.08-3.73,4.09-1,0-.69-1-.69-1.7,0-2.38,1-4.42,1.34-7.83C308.4,110.11,300.62,124.42,300.3,131.56Z"/><path d="M442.46,112.08c-11.88,12-28.52,20.84-46.21,20.9-1.7,0-2.39-1-2.39-2,.32-7.48,23-55.87,30.08-65.76v.69c0,10.54-4.36,19.74-4.35,23.82,0,2.73,2.39,3.4,3.76,3.4,3.74,0,4.74-6.14,6.37-28.6,0-4.43-2.4-6.12-5.12-6.11-2,0-3.73,2-5.09,3.76C403.58,82.26,377.94,154.81,378.07,196c0,3.11-.09,9.49,1.44,14a59.89,59.89,0,0,1,2.07-6.37,77,77,0,0,1-.46-9.34c-.05-16,7.66-56.5,11.4-56.51,8.17,0,8.23,20.05,8.24,25.15a81.8,81.8,0,0,1-5.05,27.59,7.17,7.17,0,0,1,4.48.33c2.64-8.82,4.34-18.44,4.32-25.89,0-12.93-4.49-22.78-6.55-28.22,15.31-1.4,37-15.08,45.52-23.27C444.5,112.76,443.47,111.06,442.46,112.08Z"/><path d="M435,132.86c0-6.47,5-21.79,9.44-29,2.71-4.43,7.14-2.06,4.43,2.71-3,5.45-10.82,19.76-10.8,27.59,0,3.06.7,7.82,5.47,7.81,10.89,0,38.34-33.46,45.12-43.69,2-3.07,2.37-4.09,4.07-4.09a2.16,2.16,0,0,1,2,2c0,1.36-10.45,30.31-11.12,32.36,1-2.39,25.4-38.18,31.86-38.2,1,0,3.41.67,3.42,4.41,0,6.12-2.67,18.72.39,18.71,1.71,0,3.06-1.37,5.1-2.4s2.38.34.69,1.7c-2.38,1.71-4.76,2.74-6.12,2.74-4.76,0-4.45-10.19-4.45-10.53,0-2.72.3-11.57.3-11.91-6.12,1.38-22.72,23.54-31.18,41.94-5.4,11.59-3.69,16-6.41,16-2,0-2.73-1.35-2.73-3.39,0-9.87,9.41-38.14,9.75-38.48-.34.34-30.52,35.14-40.38,35.17C439.15,144.41,435.06,141,435,132.86Zm18.91-49.39c2,0,4.09,2.71,4.1,5.09A4.75,4.75,0,0,1,453.63,93a3.57,3.57,0,0,1-3.76-3.73C449.86,85.86,452.24,83.47,453.94,83.47Z"/><path d="M579.19,98.4c0,6.12-4.38,15.66-8.43,25.88,9.17-6.49,17.65-14.68,23.43-14.7s4.12,10.2,4.13,13.94c0,3.4.36,6.46,3.76,6.45,3.74,0,11.56-2.42,19.36-10.27,4.07-4.09,9.16-10.23,9.84-10.23.34,0,.68.34,1,.68,0,4.08-20,22.85-30.55,22.88-6.12,0-6.48-6.1-6.5-11.89,0-2,1.34-8.16-1.73-8.15-2.38,0-10.86,6.49-13.24,8.88-9.16,8.87-12.2,16.71-15.94,16.72-2,0-3.75-1.35-3.76-4.41,0-6.81,9.46-22.14,13.85-35.43-1.71-1.35-5.78,3.08-7.48,4.45-20.69,19.79-30.14,44.32-36.61,44.34-3.06,0-3.41-3.39-3.42-6.11,0-5.11,5.37-25.88,12.8-43.25,1-2.39,2.37-4.43,5.09-4.44a2.85,2.85,0,0,1,3.07,3.05c0,5.45-13.51,32.71-15.85,44.62,6.78-8.53,35.58-47.06,43.4-47.08C577.14,94.32,579.18,95.34,579.19,98.4Z"/><path d="M620.45,127.87c0-7.82,15.22-29,26.79-28.66,5.44,0,6.14,6.45,6.49,9.17a28.25,28.25,0,0,1,4.76-.36c4.09,0,5.11,1.69,5.13,7.13,0,2.39,0,5.45,0,8.17,0,6.46,1.06,13.27,7.53,13.25,16.67,0,37-14.41,49.94-25.33,2.37-2,2,1,1,2-14.24,14.34-37.68,27.34-50.61,27.38-10.89,0-11.94-10.51-12-21.06,0-1.7,1-7.49-1.38-7.48-3.75,0-23.76,21.16-32.26,21.19C622.51,133.31,620.46,131.28,620.45,127.87Zm30.22-18.8c0-2-.36-5.44-2.74-5.44-4.42,0-14.6,10.26-20.34,22.52C632,124.78,650.68,112.81,650.67,109.07Z"/><path d="M33,208.91l.2,67.17.17,2c.22,1.73.6,2.59,3.25,3l3.07.21v1.4l-18.89.06v-1.41c2.75,0,4.64-.33,5.61-1a3.21,3.21,0,0,0,1-2.27l.21-2.65-.2-67a9.61,9.61,0,0,0-.06-1,6,6,0,0,0-1.47-4,5.54,5.54,0,0,0-4-1.34l-8.9,0A8.78,8.78,0,0,0,6.12,205a54.38,54.38,0,0,0-3.91,8.54L0,214.19l3.14-14.25,54-.16L60.32,214l-2.22-.64-2-4.74c-1.74-3.88-3.15-6.57-8.82-6.56l-8.9,0c-3.45,0-4.8,1.74-5.22,3.9a2.79,2.79,0,0,1-.11.86Z"/><path d="M138.29,207a8.21,8.21,0,0,0-1.58-5,3,3,0,0,0-1.73-.8l-2.22-.54v-1.29l16.56-.05v1.29l-2.16.5c-1.78.43-2.69.92-3.12,3.46l-.21,2.86.2,63.28c0,4.7.5,7.5,1.42,8.47a4.73,4.73,0,0,0,2.44,1.18l2.8.42v1.41l-12.2,0,0-17.1C134.83,276.85,123.79,284,112,284c-16.57.05-31.69-6.38-31.74-22.4l-.17-54.38A9.18,9.18,0,0,0,80,205.8l-.16-1c-.39-2-1.15-3-3-3.39l-2.21-.53v-1.29l16.61-.06v1.3l-2.16.49c-1.72.44-2.64.82-3.06,3.41l-.21,2.91.16,52.18c0,10.95,5.61,17.3,13.55,19.92a38.48,38.48,0,0,0,12.52,2,26.32,26.32,0,0,0,21.65-11.28,32.5,32.5,0,0,0,4.83-9.94Z"/><path d="M261.71,270.05l-10.94-32.77-22.23.07-10.21,32.18-1,3.84a17.74,17.74,0,0,0-.63,4.48,2.49,2.49,0,0,0,.33,1.61c.64.87,2.21,1.29,4.69,1.29v1.4l-15,0v-1.4a7.9,7.9,0,0,0,4.86-1.31,13.32,13.32,0,0,0,2.63-4.7l1.81-5.24L238,200l4.36-2.71,26,74.37,1.69,4.15a8.4,8.4,0,0,0,2.17,3.45,10.72,10.72,0,0,0,2.75,1.07l2.27.21V282l-18.29.06v-1.41c2.16,0,3.67-.44,4.53-1.31a3.25,3.25,0,0,0,.32-1.45,14,14,0,0,0-.82-4.16ZM250,235l-10.61-31.8L229.24,235Z"/><path d="M291.64,274.65l-.05-.16-.06-.38,0-.64v-.33l.1-.7a2.16,2.16,0,0,1,.7-1l.16-.16a2.72,2.72,0,0,1,2.38-.49,3,3,0,0,1,1.62,1.77l-.05,1.3a1.75,1.75,0,0,1-.64,1.13,1.14,1.14,0,0,0-.27.38l.16.27.27.27,1.73,1.29c3.46,2.58,7.84,3.86,13.18,3.84q21.76-.06,21.74-18.84c0-8.25-5-15.41-19.6-21S293,229.87,293,220.37c0-8,1.2-13.17,5-17.28s9.8-6.34,17.73-6.36c7.07,1.06,11.12,3.63,14.1,7.08a7.26,7.26,0,0,1,2.18,4.9,5.59,5.59,0,0,1-.43,2.43l0,.11a1.15,1.15,0,0,1-.38.86,2.15,2.15,0,0,1-1,.81L330,213l-1.13.17a2.66,2.66,0,0,1-2.11-1.51,6,6,0,0,1-.11-1.24,2.53,2.53,0,0,1,1.39-2,.36.36,0,0,0,.38-.27v-.33l-1-1.61a7.16,7.16,0,0,0-.92-1.35,11.89,11.89,0,0,0-3-2.8c-2.81-1.77-6.7-2.62-11.66-2.6-9.93,0-15.2,5.92-15.16,17.58,0,8,3.43,11.8,19,17.37s21.41,14.39,21.45,25.67c0,14.45-9.11,22.84-24.43,22.89-6.85,0-11.82-.72-14.95-2.22a11.74,11.74,0,0,1-5.9-5.59Z"/><path d="M351.23,200.18v-1.3l16.61,0v1.3l-2.21.49c-1.78.44-2.64.93-3.07,3.47l-.21,2.85.21,68.14.17,2c.22,1.67.76,2.59,2.87,3l2.48.21v1.4l-16.29.05v-1.4a7.14,7.14,0,0,0,4-1,3.21,3.21,0,0,0,1-2.27l.21-2.65-.21-68a10.64,10.64,0,0,0-.11-1.41l-.17-1c-.38-2-1.14-3-3-3.39Z"/><path d="M382.52,274.38l-.06-.16,0-.38-.06-.65v-.32l.1-.7a2.12,2.12,0,0,1,.7-1l.16-.16a2.75,2.75,0,0,1,2.38-.5,3,3,0,0,1,1.62,1.78l-.05,1.29a1.8,1.8,0,0,1-.64,1.14,1,1,0,0,0-.27.38l.16.27.27.26,1.73,1.29c3.46,2.58,7.84,3.87,13.18,3.85q21.76-.06,21.74-18.84c0-8.26-5-15.42-19.6-21s-19.94-11.27-20-20.76c0-8,1.2-13.17,5-17.28s9.8-6.34,17.73-6.37c7.07,1.06,11.13,3.64,14.1,7.08a7.29,7.29,0,0,1,2.18,4.9,5.59,5.59,0,0,1-.43,2.43l0,.11a1.19,1.19,0,0,1-.38.87,2.27,2.27,0,0,1-1,.81l-.16.11-1.13.16a2.63,2.63,0,0,1-2.11-1.5,6,6,0,0,1-.11-1.24,2.58,2.58,0,0,1,1.39-2.06.36.36,0,0,0,.38-.27v-.32l-1-1.62a7.42,7.42,0,0,0-.92-1.34,11.39,11.39,0,0,0-3-2.8c-2.81-1.77-6.7-2.63-11.66-2.61-9.93,0-15.2,5.93-15.16,17.58,0,8,3.43,11.81,19,17.37S428,248.5,428,259.78c0,14.46-9.11,22.85-24.43,22.9-6.85,0-11.82-.72-14.95-2.22a11.75,11.75,0,0,1-5.9-5.6Z"/><path d="M475.09,207.57l.2,67.17.17,2c.22,1.72.6,2.59,3.25,3l3.07.21v1.4l-18.89.06V280c2.75,0,4.64-.34,5.61-1a3.17,3.17,0,0,0,1-2.27l.21-2.65-.2-67a9.6,9.6,0,0,0-.06-1,6,6,0,0,0-1.47-4,5.59,5.59,0,0,0-4-1.34l-8.9,0a8.78,8.78,0,0,0-6.79,2.82,54.38,54.38,0,0,0-3.91,8.54l-2.21.65,3.14-14.25,54-.16,3.23,14.23-2.22-.64-1.95-4.74c-1.74-3.88-3.15-6.57-8.82-6.56l-8.9,0c-3.45,0-4.8,1.74-5.22,3.9a2.79,2.79,0,0,1-.11.86Z"/><path d="M533.31,200.6c-2.59,0-4,.28-4.26.88a5.09,5.09,0,0,0-1.07,2.81l-.15,3.12.08,26.71,25.73-.08c3.84,0,5.07-1.79,5.05-8.27h2.21l.06,19h-2.05c0-5.61-1.54-8.41-5.26-8.4l-25.73.08.11,37.33.06,2c0,1.78.71,2.86,2.87,3.07l2.59.15,25-.08a20.88,20.88,0,0,0,5.07-.71c3.61-.93,4.9-1.74,6.78-5.2a30.24,30.24,0,0,0,1.88-3.89l2-.49-3.64,12.47-53.41.16v-1.4a7.14,7.14,0,0,0,4-1,3.17,3.17,0,0,0,1-2.27l.21-2.65-.21-68a9,9,0,0,0-.11-1.4l-.16-1c-.39-2-1.15-3-3-3.39l-2.22-.53v-1.3l53.73-.16,3.23,14.23-2.21-.64-2-4.74c-1.74-3.88-3.15-6.57-8.82-6.55Z"/><path d="M655.12,203.79l0,1.94.23,75.1-57.59-78.11.22,70.52.06,1.94.16,1a4,4,0,0,0,3,3.07,6.14,6.14,0,0,0,2.16.37h.92V281l-14.89,0v-1.4a8.2,8.2,0,0,0,4.74-1.31,3.69,3.69,0,0,0,1.18-2.1,11.3,11.3,0,0,0,.26-3l-.2-68.14q0-3.48-2-4.85a6.11,6.11,0,0,0-2.43-.65l-2.59-.15v-1.29l12.78,0,51.79,69.76-.19-62.53c0-1.51-.22-3.56-1.52-4.69a8,8,0,0,0-4.75-1.28V198l14.89,0v1.4h-.92a6.68,6.68,0,0,0-4,1.31,4,4,0,0,0-1.18,2.16Z"/><path d="M744.8,270.69c-4.08,6.7-15.39,11-26.35,11a42.68,42.68,0,0,1-36.91-21.57,42,42,0,0,1-5.78-21.35,44.7,44.7,0,0,1,19.9-36.86,39.31,39.31,0,0,1,22.21-6.43c10.84,0,18.57,2.91,22.73,6.3a13.14,13.14,0,0,1,3.85,4.25l-1.27,9-1.68-1c0-3.4-4.5-9.8-12.29-13.83a29.4,29.4,0,0,0-13.44-3c-12.73,0-23.12,8.76-28.8,21a42.19,42.19,0,0,0-4.26,17.82c0,11.38,3,21.95,10.18,30.13s20.81,13.26,30.58,13.23a3.8,3.8,0,0,0,.7.05c4.8,0,14.28-3.87,17.94-8.25l.16-.49a1.08,1.08,0,0,0-.6-.27c-.54-.05-1.13-.8-1.51-1.66a3.91,3.91,0,0,1-.11-.7,2,2,0,0,0,.05-.49,2.5,2.5,0,0,1,1.67-1.84,2.87,2.87,0,0,1,3.19,1.45l.32,1A5.9,5.9,0,0,1,744.8,270.69Z"/><path d="M759.34,198.94v-1.29L776,197.6v1.29l-2.21.49c-1.78.44-2.64.93-3.06,3.47l-.21,2.86.2,68.14.17,2c.22,1.67.77,2.58,2.87,3l2.48.2v1.41l-16.29,0v-1.41a7.14,7.14,0,0,0,4-1,3.15,3.15,0,0,0,1-2.27l.21-2.64-.2-68a8.91,8.91,0,0,0-.12-1.4l-.16-1c-.38-2-1.14-3-3-3.39Z"/><path d="M845.48,268.28l-10.94-32.77-22.23.07L802.1,267.77l-1,3.83a17.74,17.74,0,0,0-.63,4.48,2.54,2.54,0,0,0,.33,1.62c.65.86,2.21,1.28,4.69,1.28v1.4l-15,0V279a7.89,7.89,0,0,0,4.85-1.31A13.32,13.32,0,0,0,798,273l1.82-5.24,22-69.5,4.36-2.71,26,74.37,1.69,4.15a8.4,8.4,0,0,0,2.17,3.45,10.72,10.72,0,0,0,2.75,1.07l2.27.21v1.4l-18.29.06v-1.41c2.16,0,3.67-.44,4.53-1.31a3.25,3.25,0,0,0,.32-1.45,13.85,13.85,0,0,0-.82-4.15Zm-11.76-35.09-10.61-31.8L813,233.26Z"/></g></g></svg>