<svg xmlns="http://www.w3.org/2000/svg" viewBox="0 0 541.96 202.4"><g id="Capa_2" data-name="Capa 2"><g id="Capa_1-2" data-name="Capa 1"><path d="M179.91,27a6.31,6.31,0,0,1-2.55-2.06,5.24,5.24,0,0,1-.93-3l2.91,0a3.82,3.82,0,0,0,1.19,2.48,4.35,4.35,0,0,0,3.1,1,4.54,4.54,0,0,0,3.08-1,3.18,3.18,0,0,0,1.15-2.5,2.84,2.84,0,0,0-.65-1.95,4.22,4.22,0,0,0-1.64-1.16c-.66-.26-1.55-.55-2.66-.86a23.12,23.12,0,0,1-3.31-1.1,5.37,5.37,0,0,1-2.12-1.71,5,5,0,0,1-.86-3.11,5.39,5.39,0,0,1,.89-3,5.73,5.73,0,0,1,2.46-2,8.63,8.63,0,0,1,3.62-.69,7.58,7.58,0,0,1,4.8,1.5,5.43,5.43,0,0,1,2.09,3.92l-3,0a3.26,3.26,0,0,0-1.24-2.13,4.54,4.54,0,0,0-2.94-.93,4.25,4.25,0,0,0-2.79.86,3,3,0,0,0-1.1,2.47,2.63,2.63,0,0,0,.63,1.86A4.16,4.16,0,0,0,181.62,15a27.51,27.51,0,0,0,2.65.87A25.25,25.25,0,0,1,187.59,17a5.6,5.6,0,0,1,2.15,1.73,5,5,0,0,1,.88,3.14,5.62,5.62,0,0,1-.83,2.88,6,6,0,0,1-2.42,2.17,8,8,0,0,1-3.76.81A8.92,8.92,0,0,1,179.91,27Z"/><path d="M222,23.17l-9.12-.07-1.72,4.64-2.88,0L216,7l3.15,0,7.37,20.84-2.88,0ZM221.22,21l-3.7-10.59-3.86,10.53Zm-.7-18.58-6.41,3.37v-2L220.54,0Z"/><path d="M257.44,18.24a5.56,5.56,0,0,1,1.49,1.87,5.28,5.28,0,0,1,.53,2.38,5.15,5.15,0,0,1-.83,2.86,5.45,5.45,0,0,1-2.37,2,8.43,8.43,0,0,1-3.65.71l-7.8-.06L245,7.08l7.5,0a8.57,8.57,0,0,1,3.62.74,4.88,4.88,0,0,1,3,4.62,4.65,4.65,0,0,1-1,3.07,5.69,5.69,0,0,1-2.67,1.74A4.42,4.42,0,0,1,257.44,18.24Zm-1.86,6.62a3.33,3.33,0,0,0,1.16-2.66,3.45,3.45,0,0,0-1.18-2.76,4.9,4.9,0,0,0-3.21-1l-4.74,0-.05,7.38,4.83,0A4.78,4.78,0,0,0,255.58,24.86Zm-8-8.73,4.59,0a4.47,4.47,0,0,0,3-.87,3.11,3.11,0,0,0,1.06-2.49,3.06,3.06,0,0,0-1-2.49,4.49,4.49,0,0,0-3-.93l-4.53,0Z"/><path d="M290.6,23.68l-9.12-.07-1.72,4.64-2.88,0,7.71-20.73,3.15,0,7.38,20.85-2.88,0Zm-.77-2.23-3.7-10.59-3.86,10.53Z"/><path d="M326,9a9,9,0,0,1,3.81,3.67,11.24,11.24,0,0,1,1.3,5.59,11.2,11.2,0,0,1-1.38,5.56,8.81,8.81,0,0,1-3.87,3.57,13.06,13.06,0,0,1-5.93,1.2l-6.51-.05.15-20.91,6.51,0A13,13,0,0,1,326,9Zm.14,15.24a8.18,8.18,0,0,0,2.18-6,8.31,8.31,0,0,0-2.1-6.1,8.25,8.25,0,0,0-6.15-2.24l-3.78,0-.12,16.44,3.78,0A8.32,8.32,0,0,0,326.14,24.19Z"/><path d="M353.81,27.64A10,10,0,0,1,350,23.8a10.86,10.86,0,0,1-1.35-5.52,10.85,10.85,0,0,1,1.43-5.49A10,10,0,0,1,353.94,9a11.07,11.07,0,0,1,10.65.07,10,10,0,0,1,3.76,3.83,11.1,11.1,0,0,1,1.34,5.53A11,11,0,0,1,368.26,24a9.87,9.87,0,0,1-3.8,3.76,11.07,11.07,0,0,1-10.65-.07Zm9.27-2a7.24,7.24,0,0,0,2.78-2.89,9.28,9.28,0,0,0,1-4.37,9.25,9.25,0,0,0-1-4.41,7.28,7.28,0,0,0-2.72-2.91,8.2,8.2,0,0,0-7.92-.06,7.19,7.19,0,0,0-2.77,2.88,9.09,9.09,0,0,0-1,4.38,9.11,9.11,0,0,0,1,4.39,7.12,7.12,0,0,0,2.74,2.93,7.65,7.65,0,0,0,3.93,1.05A7.77,7.77,0,0,0,363.08,25.68Z"/><path d="M221.66,194.38a24.7,24.7,0,0,0,3.67-4.08,7.39,7.39,0,0,0,1.52-4.2,4.59,4.59,0,0,0-.93-3.08,3.73,3.73,0,0,0-3-1.15,4,4,0,0,0-3.18,1.25,5.35,5.35,0,0,0-1.24,3.4l-2.64,0a7.23,7.23,0,0,1,2.08-5.18,7.77,7.77,0,0,1,9.86,0,6.2,6.2,0,0,1,1.78,4.73,9,9,0,0,1-1.52,4.83,21.62,21.62,0,0,1-3.41,4.12q-1.91,1.77-4.86,4.12l10.32.07,0,2.28-14.43-.1,0-1.95C218.2,197.34,220.21,195.68,221.66,194.38Z"/><path d="M250,182.68c1.14-1.92,3.1-2.87,5.9-2.85s4.73,1,5.83,2.94a16,16,0,0,1,1.62,8.07q0,5.25-1.74,8.14c-1.13,1.94-3.09,2.89-5.87,2.87s-4.75-1-5.86-2.95-1.64-4.68-1.62-8.18A16.21,16.21,0,0,1,250,182.68Zm10.34,3.71a5.62,5.62,0,0,0-1.39-2.94,4.86,4.86,0,0,0-6.18,0,5.64,5.64,0,0,0-1.43,2.91,24.66,24.66,0,0,0-.38,4.42,25.49,25.49,0,0,0,.31,4.54,5.77,5.77,0,0,0,1.39,2.95,4.14,4.14,0,0,0,3.1,1.13,4,4,0,0,0,3.08-1.09,5.59,5.59,0,0,0,1.43-2.93,24.45,24.45,0,0,0,.38-4.52A23.66,23.66,0,0,0,260.37,186.39Z"/><path d="M287.74,194.87a24.33,24.33,0,0,0,3.68-4.08,7.43,7.43,0,0,0,1.51-4.21,4.6,4.6,0,0,0-.92-3.08,3.78,3.78,0,0,0-3-1.15,4,4,0,0,0-3.17,1.26,5.27,5.27,0,0,0-1.24,3.39l-2.64,0a7.2,7.2,0,0,1,2.08-5.17,7.72,7.72,0,0,1,9.85-.05,6.1,6.1,0,0,1,1.78,4.72,8.92,8.92,0,0,1-1.52,4.84,21.14,21.14,0,0,1-3.4,4.11c-1.27,1.18-2.89,2.56-4.86,4.12l10.32.08,0,2.28-14.43-.11,0-2Q285.57,196.82,287.74,194.87Z"/><path d="M322.42,182.48a4.41,4.41,0,0,0-4,2q-1.34,2-1.34,6.75a5.12,5.12,0,0,1,2.31-2.43A7.33,7.33,0,0,1,323,188a6.58,6.58,0,0,1,4.93,2,7.32,7.32,0,0,1,1.8,5.32,8.21,8.21,0,0,1-.82,3.66,6.15,6.15,0,0,1-2.42,2.56,7.45,7.45,0,0,1-3.89.93,7.6,7.6,0,0,1-4.82-1.41,7.21,7.21,0,0,1-2.4-3.83,22.17,22.17,0,0,1-.65-6q.07-11,7.76-11a6.14,6.14,0,0,1,6.56,5.66l-2.52,0A3.77,3.77,0,0,0,322.42,182.48ZM320,190.79a4.33,4.33,0,0,0-1.85,1.57,4.59,4.59,0,0,0-.73,2.59,5.23,5.23,0,0,0,1.3,3.72,4.89,4.89,0,0,0,3.77,1.45,4.43,4.43,0,0,0,3.35-1.28,4.88,4.88,0,0,0,1.27-3.52,5.32,5.32,0,0,0-1.17-3.68,4.47,4.47,0,0,0-3.5-1.36A5.66,5.66,0,0,0,320,190.79Z"/><path d="M.21,74.37q6.3-7.55,17.93-7.58A15,15,0,0,1,31.35,73.9a13.28,13.28,0,0,1,2,7q0,4.92-6.66,18.4c-4.37,6.65-8.9,13-13.31,18.42-3.6,4.56-6.31,7.89-7.33,9.08s-1.74,2.09-2.63,3.07l23.49-.07a11.81,11.81,0,0,0,5.09-2.1,9.91,9.91,0,0,0,1.66-2.13l1.48-2.34.81,1.06-2.44,8.38L0,132.83V131A141.58,141.58,0,0,0,21.9,99.28Q28.17,87,28.14,80.2a12.83,12.83,0,0,0-5.22-10.07,8.88,8.88,0,0,0-5-1.55A23.33,23.33,0,0,0,2.72,74Z"/><path d="M69.05,67.87c8.13,0,14.11,8,17.08,18.41s3.2,18.88-.13,29.18-9.85,18.41-17.81,18.9c-8.55,0-15.08-8-18.48-19.13a57.88,57.88,0,0,1-2.56-16.5,45.79,45.79,0,0,1,6.66-20.31C57.67,72.2,63.1,67.89,69.05,67.87ZM51.76,103.32c0,8.21,2.82,18.28,8.16,24.52,2.65,3.09,5.76,4.66,9.33,4.65,6.68,0,10.87-7.86,12.58-17.61a78.4,78.4,0,0,0,1.28-14.08c0-8-2-18.8-6.63-25.81-2.31-3.52-5.25-5.26-8.78-5.25-7.53,0-12.36,8.38-14.41,18.77A74.45,74.45,0,0,0,51.76,103.32Z"/><path d="M133.08,132.42v-1.1a5.9,5.9,0,0,0,3.11-.78,2.94,2.94,0,0,0,.72-1.79l.16-2.08-.16-53.6a8.16,8.16,0,0,0-.09-1.11c0-.3-.13-.72-.18-1.23a2.72,2.72,0,0,0-.89-1.57,2.34,2.34,0,0,0-1.41-.64l-1.79-.42v-1l16.93,0a35.46,35.46,0,0,1,26,10.77c6.44,6.57,10.55,15.28,10.58,24.13,0,8-4,15.71-10.53,21.3s-16.05,9.11-27.07,9.15Zm10.27-63.54a2.37,2.37,0,0,0-1.82,2l-.17,2.51.17,53.95c0,2.34.86,3.57,3,3.56.3,0,2.55.08,3.87.07,3.11,0,16.88-3.66,23.16-9.17s9-12.75,9-21.21c0-8-3.71-16-9.69-22.1a34.56,34.56,0,0,0-24.66-10.09,2.94,2.94,0,0,0-.55,0A8.09,8.09,0,0,0,143.35,68.88Z"/><path d="M210.34,68.63c-2,0-3.15.22-3.36.69a4,4,0,0,0-.84,2.22L206,74l.07,21.06L226.37,95c3,0,4-1.42,4-6.52h1.74l0,15h-1.62c0-4.42-1.21-6.63-4.14-6.62l-20.3.06.09,29.44.05,1.57a2.14,2.14,0,0,0,2.26,2.42l2.05.12,19.69-.06a16.26,16.26,0,0,0,4-.56c2.85-.73,3.87-1.37,5.35-4.1a23.88,23.88,0,0,0,1.48-3.07l1.61-.39-2.86,9.84-42.12.13v-1.11a5.67,5.67,0,0,0,3.15-.77,2.58,2.58,0,0,0,.76-1.79l.16-2.09-.16-53.6a8.16,8.16,0,0,0-.09-1.11l-.13-.76A2.83,2.83,0,0,0,199,68.32l-1.75-.42v-1l42.37-.12L242.15,78l-1.75-.51-1.54-3.74c-1.37-3-2.49-5.18-7-5.16Z"/><path d="M287.13,148.84a2.34,2.34,0,0,1,.08-1.91,2.05,2.05,0,0,1,1.66-.94,2,2,0,0,1,1.7,1s.09.13.21.21a1.47,1.47,0,0,0,.34-.21,14.55,14.55,0,0,0,2.07-4.9,79.11,79.11,0,0,0,.52-10.85l-.18-58.7a6.48,6.48,0,0,0-1.24-3.92,2.41,2.41,0,0,0-1.41-.63l-1.7-.42v-1l13.06,0v1l-1.74.39c-1.32.34-2.08.73-2.42,2.73l-.16,2.25.18,59.35a30.1,30.1,0,0,1-.88,6.3,21.69,21.69,0,0,1-2.23,6.26,12.68,12.68,0,0,1-2.93,3.75l-.89.64a7.27,7.27,0,0,1-1.65.86h-.3l-.51,0a1.92,1.92,0,0,1-1.49-1Z"/><path d="M363.76,72.29a6.41,6.41,0,0,0-1.25-3.91,2.39,2.39,0,0,0-1.36-.63l-1.74-.42v-1l13.06,0v1l-1.71.39c-1.4.34-2.12.73-2.45,2.73l-.17,2.25.15,49.9c0,3.7.4,5.92,1.13,6.68a3.64,3.64,0,0,0,1.92.93l2.21.33v1.11l-9.61,0,0-13.49C361,127.35,352.33,133,343,133c-13.06,0-25-5-25-17.67l-.13-42.88a8,8,0,0,0-.09-1.1l-.13-.77a2.82,2.82,0,0,0-2.39-2.67l-1.75-.42v-1l13.1,0v1l-1.7.39c-1.37.34-2.09.64-2.42,2.68l-.16,2.3.12,41.14c0,8.63,4.42,13.64,10.68,15.71a30.51,30.51,0,0,0,9.88,1.54,20.77,20.77,0,0,0,17.07-8.9,25.71,25.71,0,0,0,3.81-7.84Z"/><path d="M437.25,70.75l0,1.53.18,59.22L392,69.91l.17,55.6.05,1.53.13.77a3.16,3.16,0,0,0,2.39,2.42,4.68,4.68,0,0,0,1.7.29h.73v1.1l-11.74,0v-1.11a6.45,6.45,0,0,0,3.74-1,2.84,2.84,0,0,0,.93-1.66,9.39,9.39,0,0,0,.21-2.34l-.16-53.73c0-1.83-.52-3.11-1.55-3.83a4.71,4.71,0,0,0-1.91-.5l-2-.12v-1l10.09,0,40.83,55L435.38,72c0-1.19-.18-2.81-1.2-3.7a6.22,6.22,0,0,0-3.75-1v-1.1l11.74,0v1.11h-.73a5.17,5.17,0,0,0-3.14,1,3.11,3.11,0,0,0-.93,1.71Z"/><path d="M453.43,67.13v-1l13.1,0v1l-1.75.39c-1.4.34-2.08.73-2.41,2.73l-.17,2.25.17,53.73.13,1.58a2.36,2.36,0,0,0,2.26,2.37l2,.17v1.1l-12.85,0v-1.11a5.67,5.67,0,0,0,3.15-.77,2.56,2.56,0,0,0,.76-1.79l.16-2.08-.16-53.61a8,8,0,0,0-.09-1.1l-.13-.77a2.82,2.82,0,0,0-2.39-2.67Z"/><path d="M508.93,64.15c11.95,0,22.57,6.53,28.55,17a34.49,34.49,0,0,1-11.85,46.32,31.46,31.46,0,0,1-16.49,4.68,28,28,0,0,1-12.31-2.68,29.6,29.6,0,0,1-10-7.46,36.57,36.57,0,0,1-9-23.71c0-11.7,5.72-23,15.27-29.36A28.13,28.13,0,0,1,508.93,64.15Zm-25.42,34.5c0,10.93,5,21.29,13.1,27.18a21.22,21.22,0,0,0,12.78,4.39c13.57,0,21.46-7.3,24.7-17A47.69,47.69,0,0,0,536.47,98a34.62,34.62,0,0,0-14.8-27.78c-4.31-3-8.48-4.44-12.48-4.43C497.24,65.8,489.6,73,486.1,83.2A47.36,47.36,0,0,0,483.51,98.65Z"/></g></g></svg>