<svg xmlns="http://www.w3.org/2000/svg" viewBox="0 0 930.68 114.55"><defs><style>.cls-1{fill:#494b6e;}</style></defs><g id="Capa_2" data-name="Capa 2"><g id="Capa_1-2" data-name="Capa 1"><path class="cls-1" d="M.9,114.11v-1.84A9.65,9.65,0,0,0,6.07,111a4.87,4.87,0,0,0,1.2-3l.28-3.49L7.27,15a13.2,13.2,0,0,0-.14-1.85c-.08-.5-.22-1.21-.29-2.06a4.65,4.65,0,0,0-1.5-2.62A3.94,3.94,0,0,0,3,7.43l-3-.7V5l28.27-.08a59.19,59.19,0,0,1,43.45,18c10.76,11,17.62,25.51,17.66,40.28,0,13.43-6.6,26.23-17.58,35.57S45,114,26.61,114ZM18.05,8a4,4,0,0,0-3,3.42l-.28,4.19L15,105.69c0,3.9,1.44,6,5.06,6,.5.07,4.26.13,6.46.12,5.19,0,28.18-6.12,38.66-15.31S80.26,75.16,80.21,61c0-13.35-6.19-26.76-16.16-36.88A57.67,57.67,0,0,0,22.88,7.3,4.83,4.83,0,0,0,22,7.23,13.41,13.41,0,0,0,18.05,8Z"/><path class="cls-1" d="M108,6.4V4.62l33.17-.1c14.27,0,24.09,5.54,29,14.26A26.41,26.41,0,0,1,174,32.34c0,7.67-6.2,15.71-15.07,19.72a38.62,38.62,0,0,1-15.76,3l-1.06.14,34,51.68a10,10,0,0,0,9,4.73v1.84l-3.55.08-4.33.16q-4.8,0-10.46-6.79L155.52,90.77q-7.38-11-22.69-35.51l-10,0L123,105l.22,2.62a5.36,5.36,0,0,0,.93,2.56l.65.56a13.44,13.44,0,0,0,2.63.71l3.48.34v1.85l-22.09.14v-1.92a9.43,9.43,0,0,0,5.25-1.3,4.18,4.18,0,0,0,1.27-3l.27-3.48-.27-89.42a13.32,13.32,0,0,0-.14-1.85l-.22-1.28c-.51-2.62-1.51-3.9-4-4.46Zm18.19,1.86c-1.92.58-3,1.65-3.26,3.28l-.27,3.76.11,36.44,18.75-.06c14.7,0,23.7-8.45,23.66-19.32,0-13.56-6.32-24.91-24-24.85C136.09,7.52,128.85,7.4,126.22,8.26Z"/><path class="cls-1" d="M225.37,7.32c-3.41,0-5.26.37-5.61,1.16a6.71,6.71,0,0,0-1.41,3.69l-.2,4.12.11,35.16,33.87-.1c5.05,0,6.67-2.37,6.65-10.89h2.91l.07,25h-2.69c0-7.39-2-11.07-6.93-11.06l-33.87.1.14,49.15.08,2.63c0,2.34.94,3.76,3.78,4l3.41.2,32.88-.1a28.29,28.29,0,0,0,6.68-.94c4.75-1.23,6.45-2.3,8.92-6.85a38.56,38.56,0,0,0,2.47-5.12l2.7-.65-4.78,16.42-70.31.22v-1.85a9.45,9.45,0,0,0,5.26-1.3,4.22,4.22,0,0,0,1.27-3l.27-3.48-.27-89.49a13.17,13.17,0,0,0-.15-1.85l-.22-1.28c-.5-2.62-1.5-3.9-4-4.46l-2.91-.7V4.41l70.74-.22,4.25,18.74-2.92-.84L273,15.84c-2.29-5.1-4.15-8.65-11.6-8.63Z"/><path class="cls-1" d="M298.39,103.62l-.08-.21-.07-.5-.07-.85v-.43l.14-.92a2.69,2.69,0,0,1,.92-1.35l.21-.22a3.57,3.57,0,0,1,3.12-.64,3.88,3.88,0,0,1,2.14,2.33l-.07,1.71a2.32,2.32,0,0,1-.84,1.49,1.62,1.62,0,0,0-.36.5l.22.36.35.35,2.28,1.7c4.56,3.39,10.31,5.08,17.35,5.06q28.65-.09,28.61-24.81c0-10.86-6.59-20.29-25.79-27.69S300.2,44.67,300.16,32.17c0-10.51,1.58-17.34,6.61-22.75S319.67,1.07,330.11,1c9.31,1.39,14.64,4.78,18.56,9.32,1.93,2.19,2.86,4.18,2.86,6.45A7.17,7.17,0,0,1,351,20l-.07.14a1.5,1.5,0,0,1-.49,1.14,3,3,0,0,1-1.35,1.07l-.21.14-1.49.22a3.51,3.51,0,0,1-2.78-2,8.75,8.75,0,0,1-.14-1.63,3.38,3.38,0,0,1,1.84-2.71.47.47,0,0,0,.49-.35v-.43l-1.28-2.13a10.34,10.34,0,0,0-1.22-1.77,15.28,15.28,0,0,0-4-3.68c-3.7-2.33-8.81-3.45-15.35-3.43-13.07,0-20,7.8-20,23.14,0,10.58,4.53,15.54,25.07,22.86s28.19,19,28.23,33.8c.06,19-12,30.08-32.15,30.14-9,0-15.56-1-19.68-2.93a15.42,15.42,0,0,1-7.77-7.36Z"/><path class="cls-1" d="M377.36,103.38l-.07-.21-.07-.5-.08-.85v-.42l.14-.93a2.69,2.69,0,0,1,.92-1.35l.21-.21a3.59,3.59,0,0,1,3.13-.65,3.9,3.9,0,0,1,2.13,2.33l-.06,1.71a2.27,2.27,0,0,1-.85,1.49,1.85,1.85,0,0,0-.35.5l.21.36.36.35,2.27,1.7c4.56,3.39,10.32,5.08,17.35,5.06q28.66-.09,28.62-24.8c0-10.87-6.6-20.3-25.8-27.7s-26.25-14.83-26.29-27.33c0-10.51,1.58-17.34,6.61-22.75S398.64.83,409.08.8c9.31,1.39,14.65,4.79,18.57,9.32,1.92,2.19,2.85,4.18,2.86,6.45a7.46,7.46,0,0,1-.56,3.2l-.07.14a1.52,1.52,0,0,1-.49,1.14A3,3,0,0,1,428,22.12l-.21.14-1.49.22a3.48,3.48,0,0,1-2.78-2,8.49,8.49,0,0,1-.15-1.63,3.42,3.42,0,0,1,1.84-2.71.47.47,0,0,0,.5-.35v-.43l-1.29-2.13a10.28,10.28,0,0,0-1.21-1.77,15.45,15.45,0,0,0-4-3.68c-3.7-2.33-8.82-3.45-15.35-3.43-13.07,0-20,7.8-20,23.14,0,10.58,4.52,15.54,25.07,22.86s28.18,18.95,28.23,33.8c.05,19-12,30.08-32.16,30.14-9,0-15.55-1-19.68-2.93a15.4,15.4,0,0,1-7.76-7.36Z"/><path class="cls-1" d="M601.85,99.29c-5.38,8.83-20.27,14.48-34.69,14.53a56.22,56.22,0,0,1-48.6-28.41A55.28,55.28,0,0,1,511,57.31a58.88,58.88,0,0,1,26.2-48.52C545.59,3.16,555.38.36,566.39.32c14.27,0,24.44,3.84,29.93,8.29,2.77,2.27,4.41,4.11,5,5.6L599.71,26l-2.21-1.27c0-4.47-5.93-12.91-16.18-18.2A38.59,38.59,0,0,0,563.63,2.6c-16.77,0-30.44,11.53-37.92,27.68-3.74,8.1-5.63,15.92-5.61,23.45,0,15,4,28.9,13.4,39.66s27.4,17.46,40.26,17.42a4.74,4.74,0,0,0,.92.07c6.32,0,18.8-5.1,23.62-10.87l.21-.63a1.32,1.32,0,0,0-.78-.36c-.72-.07-1.5-1.06-2-2.19a6,6,0,0,1-.14-.93,2.34,2.34,0,0,0,.06-.64,3.32,3.32,0,0,1,2.2-2.42,3.5,3.5,0,0,1,3.27.77,3.36,3.36,0,0,1,.92,1.14l.44,1.27A8,8,0,0,1,601.85,99.29Z"/><path class="cls-1" d="M673,0c20-.06,37.67,10.9,47.67,28.34a57.59,57.59,0,0,1-19.8,77.33,52.51,52.51,0,0,1-27.53,7.82A46.73,46.73,0,0,1,652.8,109a49.3,49.3,0,0,1-16.66-12.45,61.1,61.1,0,0,1-15-39.58c-.06-19.54,9.54-38.46,25.49-49A46.86,46.86,0,0,1,673,0ZM630.56,57.59c.05,18.25,8.41,35.55,21.87,45.39,6.69,4.88,13.8,7.34,21.33,7.32,22.65-.07,35.83-12.18,41.25-28.39a80.15,80.15,0,0,0,4-25.44c-.06-18.82-10.34-36.48-24.72-46.38-7.19-4.95-14.15-7.41-20.83-7.39-20,.06-32.7,12.1-38.55,29.09A79.38,79.38,0,0,0,630.56,57.59Z"/><path class="cls-1" d="M747.7,111.85V110a9.68,9.68,0,0,0,5.18-1.29,5,5,0,0,0,1.2-3l.27-3.48-.27-89.49a12.88,12.88,0,0,0-.15-1.84c-.07-.5-.22-1.21-.29-2.06a4.56,4.56,0,0,0-1.5-2.63,4,4,0,0,0-2.35-1l-3-.71V2.76l28.27-.09a59.21,59.21,0,0,1,43.45,18c10.76,11,17.62,25.52,17.66,40.29.05,13.42-6.59,26.23-17.57,35.57s-26.8,15.21-45.2,15.26ZM764.85,5.76a4,4,0,0,0-3,3.42l-.27,4.19.27,90.06c0,3.9,1.44,6,5.06,5.95.5.07,4.26.13,6.46.12,5.19,0,28.18-6.12,38.67-15.32s15.06-21.28,15-35.41c0-13.36-6.19-26.76-16.17-36.89A57.69,57.69,0,0,0,769.68,5a4.65,4.65,0,0,0-.92-.06A13.41,13.41,0,0,0,764.85,5.76Z"/><path class="cls-1" d="M876.72,5.35c-3.41,0-5.26.37-5.61,1.15a6.72,6.72,0,0,0-1.41,3.7l-.2,4.12.1,35.16,33.88-.11c5,0,6.67-2.36,6.64-10.88H913l.07,25h-2.7c0-7.39-2-11.08-6.92-11.06l-33.88.1.15,49.15.08,2.63c0,2.34.94,3.76,3.78,4l3.41.21,32.88-.1a27.7,27.7,0,0,0,6.67-1c4.76-1.22,6.46-2.29,8.93-6.84A39.8,39.8,0,0,0,928,95.54l2.7-.65-4.78,16.42-70.31.21v-1.84a9.41,9.41,0,0,0,5.25-1.3,4.14,4.14,0,0,0,1.27-3l.28-3.48-.27-89.49a14.69,14.69,0,0,0-.15-1.84l-.22-1.28c-.5-2.63-1.5-3.9-4-4.46l-2.91-.7V2.43l70.74-.21L929.82,21l-2.92-.85-2.57-6.24c-2.29-5.11-4.15-8.65-11.61-8.63Z"/></g></g></svg>