<svg xmlns="http://www.w3.org/2000/svg" viewBox="0 0 506.51 238.86"><g id="Capa_2" data-name="Capa 2"><g id="Capa_1-2" data-name="Capa 1"><path d="M61.89,161c16.17-54.49,16.17-54.49,18.89-54.5,1.7,0,3.07,2,3.07,3.4,0,2-7.08,18.73-9.1,27.58C86.6,117,95.74,103,102.21,103c9.52,0,.09,32.33,15.06,32.28,6.47,0,11.22-3.78,15.29-6.51s2.73.67.35,2.72c-4.41,3.42-11.55,6.5-16,6.52-17,.05-9.28-32-15.41-31.94-3.06,0-14.25,13-23.37,32.39-14.88,32-13.51,34.07-15.89,33.74a2,2,0,0,1-2.05-2A60.93,60.93,0,0,1,61.89,161Z"/><path d="M128.86,140.71c2.66-19.74,20-28,26.45-28,2.72,0,3.75,2,3.76,4.07,0,7.83-13.56,18.76-22.06,19.12-1.36.69-2,3.07-2,5.45,0,6.13,1.74,10.2,8.2,10.18,9.19,0,27.88-7.22,45.53-20.55,2.71-2.05,5.43-3.42,6.11-3.42,1,0,.35,1.36-4.06,5.12-9.85,8.53-34.64,23.24-47.91,23.28C134.69,156,127.53,150.24,128.86,140.71Zm9.16-7.85c9.52-2.75,17.32-9.92,17.64-16.05C148.53,118.88,140.72,125.7,138,132.86Z"/><path d="M180.84,230c0-15.66,20.63-43.28,34.53-58.29,15.6-17.06,19-17.75,19.33-22.85.32-4.77,2-18.72,2-21.45s-1-9.18-4.45-9.17c-10.89,0-33.58,35.15-44.12,35.18-3.06,0-5.45-2.36-5.47-6.11,0-10.54,16.59-29.65,24.41-29.33,2.38,0,4.43,1.69,6.82,5.42,3.06-2.73,12.22-10.58,18.69-10.6,6.8,0,9.55,7.79,9.56,12.56,0,3.4-1.31,17-1.64,20.76,6.11-4.45,23.76-18.45,31.25-18.47,2.38,0,1,1.36,0,1.7-12.57,4.12-23.09,13-31.91,22.21C229.71,187,202,238.82,186.65,238.86,183.59,238.87,180.86,236.5,180.84,230Zm6.82,5.08c10.21,0,36.28-42.64,45-77.37-6.45,5.12-48.16,49.48-48.09,73.63C184.6,233.77,185.62,235.12,187.66,235.12Zm2.79-90.85c17.64-16.39,19-16.05,19-18.09,0-1.36-.35-3.06-1.71-3.06C203,123.13,191.46,138.82,190.45,144.27Z"/><path d="M282.22,115.07c13.27,0,3.53,39.12,15.77,39.08,25.52-.08,60.92-107,66-113.84,1-1.36,3.4.33,3.4,1.69,0,0-45.24,114.12-45.16,142.7,0,1.7,1,2.71,2.74,4.41.68.68-.68,2-1.36,2-3.74,0-3.75-4.08-3.76-7.48-.06-18,12.07-58.21,15.78-69.79-7.11,11.93-24.7,44.3-38,44.34-9.87,0-11.28-15.95-13-26.5-5.43,4.44-6.78,8.87-13.56,15.69-2.72,2.74-7.15,1.39-7.16-2.69C263.92,135.88,274.4,115.09,282.22,115.07Zm-12.84,27.6c2-1.71,15.26-16,15.25-18.42,0-1-1-4.42-2.73-4.42-3.74,0-13.56,17.74-13.55,20.8C268.35,141.31,268.36,143.35,269.38,142.67Z"/><path d="M361.5,117.21c1.71,0,3.41,1.35,5.8,3.73a26.39,26.39,0,0,1-.7-5.11c0-1.36,1-2.38,2.38-1.7a18.34,18.34,0,0,0,6.81,1.68c6.46,0,12.58-3.1,18-6.52,1.7-1,2.71-3.07,4.07-4.44,5.09-5.12,5.09-4.78,5.77-4.78,1.7,0,2.39.68,2.39,2.38,0,0-6.79,5.8-7.07,23.49,0,4.43.36,8.85.38,13.61,6.79-3.76,26.16-11,28.2-12.33,1-.69,3.06-1,.68.67-9.17,5.82-20.38,9.59-29.21,16.09-.28,20.41-15.86,43.93-31.17,44-5.44,0-8.85-3.38-8.87-8.48,0-14.29,29.5-34.45,36.29-37.19,2-12.26-2.09-16-.09-30.28-6.11,4.1-12.56,7.52-21.07,7.54-6.46,0-1.66,14-11.47,33.72-1.69,3.41-4.74,5.8-8.48,5.81-7.15,0-9.55-6.43-9.57-13.92C344.53,129.17,356.74,117.23,361.5,117.21Zm-7.38,33.71c3.06,0,10.51-11.26,10.48-21.47,0-3.4,0-8.51-2.06-8.5-2.73,0-11.2,11.6-11.16,22.83C351.38,145.82,351.74,150.92,354.12,150.92Zm14.73,33c15.31,0,25.11-21.85,26.08-37.84-8.15,3.09-31.58,20.51-31.54,33.44C363.4,182.87,365.45,183.88,368.85,183.87Z"/><path d="M81.53,77.79l-.21-69L48,86.15l-2.37,1Q11.73,8.65,9.84,9.17L10,76.93c0,3.19.5,5.23,1.42,6.15a4.49,4.49,0,0,0,2.22,1l2.05.16v1.4L.3,85.65v-1.4c2.59,0,4.31-.4,5.18-1.15a9.1,9.1,0,0,0,2-6.16l-.2-66.58A7.53,7.53,0,0,0,4.92,5.89,6.78,6.78,0,0,0,0,4.08V2.78l14.89,0L48.78,77.89,81.63,2.53l12.78,0V3.9c-2.59,0-4.48.39-5.66,1.15a5.1,5.1,0,0,0-1.83,3.29l.21,69v1c0,.43.12,3.4,1.37,4.48a6.35,6.35,0,0,0,1.94.85l2.21.48v1.3l-16.62,0v-1.3l2.21-.49c1.78-.44,2.58-1.3,3-3.41Z"/><path d="M125.31,4.77c-2.59,0-4,.29-4.26.88A5.05,5.05,0,0,0,120,8.46l-.16,3.13.08,26.7,25.74-.07c3.83,0,5.06-1.8,5.05-8.27h2.21l.06,19H150.9c0-5.62-1.53-8.42-5.25-8.4l-25.74.07L120,78l.06,2c0,1.78.71,2.86,2.87,3.07l2.59.15,25-.07a21.38,21.38,0,0,0,5.07-.72c3.61-.93,4.91-1.74,6.78-5.2a28.37,28.37,0,0,0,1.88-3.89l2.05-.49-3.63,12.47-53.41.17V84a7.14,7.14,0,0,0,4-1,3.19,3.19,0,0,0,1-2.27l.2-2.64-.2-68a10.34,10.34,0,0,0-.11-1.4l-.17-1c-.38-2-1.14-3-3-3.38l-2.21-.54V2.56l53.74-.17,3.22,14.24L163.43,16l-2-4.74c-1.74-3.88-3.15-6.58-8.81-6.56Z"/><path d="M180.75,77.93l-.05-.17-.06-.37,0-.65v-.32l.11-.71a2.07,2.07,0,0,1,.7-1l.16-.17a2.77,2.77,0,0,1,2.37-.49,3,3,0,0,1,1.63,1.78l-.05,1.29a1.81,1.81,0,0,1-.65,1.14,1.36,1.36,0,0,0-.27.38l.17.26.27.27,1.73,1.29c3.46,2.58,7.83,3.87,13.17,3.85q21.78-.08,21.74-18.84c0-8.26-5-15.42-19.59-21s-19.94-11.27-20-20.76c0-8,1.2-13.17,5-17.28S196.92,0,204.85,0C211.92,1.06,216,3.63,219,7.08a7.28,7.28,0,0,1,2.17,4.9,5.46,5.46,0,0,1-.42,2.43l-.06.11a1.1,1.1,0,0,1-.37.86,2.27,2.27,0,0,1-1,.82l-.16.11-1.14.16a2.65,2.65,0,0,1-2.11-1.5,7,7,0,0,1-.11-1.25,2.59,2.59,0,0,1,1.4-2.05.37.37,0,0,0,.38-.27v-.32l-1-1.62a7.42,7.42,0,0,0-.92-1.34,11.55,11.55,0,0,0-3-2.8c-2.81-1.77-6.7-2.63-11.66-2.61-9.93,0-15.2,5.93-15.16,17.58,0,8,3.43,11.81,19,17.37s21.41,14.39,21.44,25.67c0,14.46-9.1,22.85-24.42,22.89C195,86.25,190,85.5,186.87,84a11.75,11.75,0,0,1-5.9-5.6Z"/><path d="M295.58,72.88,284.63,40.12l-22.22.06L252.2,72.37l-1,3.83a18.33,18.33,0,0,0-.64,4.48,2.54,2.54,0,0,0,.33,1.62q1,1.29,4.7,1.28V85l-15,0V83.62a7.89,7.89,0,0,0,4.85-1.3,13,13,0,0,0,2.63-4.71l1.82-5.23,22-69.51L276.2.16l26,74.38,1.68,4.15a8.53,8.53,0,0,0,2.17,3.44,10,10,0,0,0,2.76,1.07l2.26.21v1.4l-18.29.06v-1.4c2.16,0,3.67-.45,4.53-1.31a3.16,3.16,0,0,0,.32-1.46,13.66,13.66,0,0,0-.82-4.15ZM283.82,37.8,273.2,6,263.1,37.86Z"/><path d="M367.54,84.64v-1.4a7.29,7.29,0,0,0,3.93-1,3.74,3.74,0,0,0,.91-2.27l.21-2.65-.2-68A10.47,10.47,0,0,0,372.27,8c0-.38-.16-.91-.22-1.56a3.42,3.42,0,0,0-1.14-2,3,3,0,0,0-1.78-.81l-2.27-.53V1.78l21.47-.07a45,45,0,0,1,33,13.66c8.17,8.33,13.38,19.38,13.42,30.6,0,10.2-5,19.92-13.36,27s-20.35,11.55-34.33,11.59Zm13-80.58a3,3,0,0,0-2.31,2.59l-.21,3.18.21,68.41c0,3,1.09,4.53,3.84,4.52.38.06,3.24.1,4.91.1,3.94,0,21.41-4.65,29.37-11.64s11.44-16.16,11.41-26.9c0-10.14-4.7-20.32-12.28-28A43.81,43.81,0,0,0,384.24,3.5a3.9,3.9,0,0,0-.71,0A9.91,9.91,0,0,0,380.57,4.06Z"/><path d="M465.52,3.74c-2.59,0-4,.29-4.26.88a5.05,5.05,0,0,0-1.07,2.81L460,10.56l.08,26.7,25.73-.07c3.83,0,5.07-1.8,5-8.27h2.21l.06,19h-2.05c0-5.61-1.54-8.41-5.26-8.4l-25.74.08.12,37.34.06,2c0,1.78.71,2.86,2.86,3.07l2.59.15,25-.07a21.31,21.31,0,0,0,5.07-.72c3.62-.93,4.91-1.74,6.79-5.2a29.28,29.28,0,0,0,1.87-3.89l2.05-.49-3.63,12.47-53.41.17V83a7.11,7.11,0,0,0,4-1,3.19,3.19,0,0,0,1-2.27l.21-2.64-.21-68a10.64,10.64,0,0,0-.11-1.41l-.17-1c-.38-2-1.14-3-3-3.39l-2.21-.53V1.53l53.74-.17,3.23,14.24L503.64,15l-2-4.74c-1.73-3.88-3.14-6.58-8.81-6.56Z"/></g></g></svg>