<svg xmlns="http://www.w3.org/2000/svg" viewBox="0 0 752.38 130.81"><defs><style>.cls-1{fill:#494b6e;}</style></defs><g id="Capa_2" data-name="Capa 2"><g id="Capa_1-2" data-name="Capa 1"><path class="cls-1" d="M87.88,28.21l-.06,2.56.3,98.86L12.31,26.81l.28,92.82.08,2.56.21,1.28a5.26,5.26,0,0,0,4,4,7.46,7.46,0,0,0,2.84.49h1.21v1.85l-19.6,0v-1.84a10.81,10.81,0,0,0,6.24-1.72,4.89,4.89,0,0,0,1.56-2.78,15.39,15.39,0,0,0,.34-3.91l-.27-89.7q0-4.57-2.58-6.38a7.65,7.65,0,0,0-3.2-.84L0,22.51v-1.7l16.83,0L85,112.6l-.25-82.32c0-2-.3-4.69-2-6.17a10.38,10.38,0,0,0-6.25-1.69V20.58l19.6-.06v1.84H94.89a8.67,8.67,0,0,0-5.25,1.72,5.26,5.26,0,0,0-1.55,2.84Z"/><path class="cls-1" d="M166.9,17.32c20-.06,37.67,10.89,47.67,28.33A57.6,57.6,0,0,1,194.77,123a52.51,52.51,0,0,1-27.53,7.82,46.87,46.87,0,0,1-20.54-4.48,49.29,49.29,0,0,1-16.65-12.45,61.05,61.05,0,0,1-15-39.58c-.06-19.54,9.54-38.46,25.49-49A46.86,46.86,0,0,1,166.9,17.32ZM124.46,74.91c.05,18.25,8.42,35.55,21.87,45.39,6.69,4.87,13.8,7.34,21.33,7.32,22.65-.07,35.83-12.19,41.25-28.4a79.78,79.78,0,0,0,4-25.44c-.06-18.82-10.34-36.47-24.72-46.37C181,22.46,174,20,167.33,20c-20,.06-32.7,12.1-38.55,29.09A79.38,79.38,0,0,0,124.46,74.91Z"/><path class="cls-1" d="M383.55,27.32l-.06,2.55.29,98.87L308,25.91l.29,92.83.07,2.55.22,1.28a5.27,5.27,0,0,0,4,4,7.86,7.86,0,0,0,2.84.49h1.21v1.85L297,129v-1.85a10.75,10.75,0,0,0,6.24-1.72,4.86,4.86,0,0,0,1.56-2.77,15.44,15.44,0,0,0,.34-3.91l-.27-89.7q0-4.59-2.58-6.39a8,8,0,0,0-3.2-.84l-3.41-.2V19.91l16.83-.05,68.18,91.84-.25-82.32c0-2-.3-4.68-2-6.17a10.34,10.34,0,0,0-6.25-1.68V19.68l19.6-.06v1.85h-1.21a8.79,8.79,0,0,0-5.25,1.72A5.29,5.29,0,0,0,383.76,26Z"/><path class="cls-1" d="M410.59,21.27V19.56l21.87-.06v1.7l-2.91.65c-2.34.58-3.48,1.22-4,4.56l-.27,3.76.27,89.7.22,2.63c.29,2.2,1,3.41,3.78,4l3.27.27v1.85l-21.45.06v-1.84a9.43,9.43,0,0,0,5.25-1.3,4.18,4.18,0,0,0,1.27-3l.27-3.49-.27-89.48a11.81,11.81,0,0,0-.15-1.85l-.21-1.28c-.51-2.63-1.51-3.9-4-4.46Z"/><path class="cls-1" d="M539.15,26.84l-.06,2.56.3,98.87L463.58,25.44l.28,92.83.08,2.55.22,1.28c.36,2.27,2.21,3.47,4,4a7.83,7.83,0,0,0,2.84.49h1.21v1.85l-19.6.06v-1.85a10.84,10.84,0,0,0,6.25-1.72,4.85,4.85,0,0,0,1.55-2.78,15.73,15.73,0,0,0,.35-3.9l-.27-89.71q0-4.58-2.58-6.38a8,8,0,0,0-3.2-.84l-3.41-.2V19.44l16.83-.05,68.17,91.84L536,28.91c0-2-.3-4.68-2-6.17a10.37,10.37,0,0,0-6.26-1.68V19.21l19.6-.06V21h-1.21a8.79,8.79,0,0,0-5.25,1.72,5.3,5.3,0,0,0-1.56,2.85ZM467.76,0a13,13,0,0,0,7.06,8.79,12.87,12.87,0,0,0,4.69,1.12c3.06.2,7.46-1.16,13.2-3.95s10.43-4.08,14.05-3.87a15.46,15.46,0,0,1,10.46,5.43,24.46,24.46,0,0,1,3.14,4.4L518.6,16A12.94,12.94,0,0,0,516,11.5a11.74,11.74,0,0,0-7.11-3q-3.51.23-12.55,4.94c-4.75,2.5-8.94,3.72-12.71,3.73a13.49,13.49,0,0,1-3-.27,20.72,20.72,0,0,1-12.17-7,20.06,20.06,0,0,1-3.13-4.6Z"/><path class="cls-1" d="M618.17,16c20-.06,37.68,10.9,47.68,28.34a57.59,57.59,0,0,1-19.8,77.33,52.52,52.52,0,0,1-27.53,7.83A46.85,46.85,0,0,1,598,125a49.3,49.3,0,0,1-16.66-12.45,61,61,0,0,1-15-39.58c-.06-19.53,9.54-38.45,25.49-49A46.93,46.93,0,0,1,618.17,16ZM575.73,73.54c.06,18.25,8.42,35.56,21.87,45.39,6.7,4.88,13.81,7.34,21.33,7.32,22.66-.07,35.83-12.18,41.25-28.39a79.54,79.54,0,0,0,4-25.44c0-18.82-10.33-36.48-24.71-46.38-7.19-4.95-14.16-7.41-20.83-7.39-20,.06-32.71,12.1-38.55,29.09A79.43,79.43,0,0,0,575.73,73.54Z"/><path class="cls-1" d="M692.49,118.21l-.07-.21-.07-.5-.07-.85v-.42l.13-.93a2.76,2.76,0,0,1,.92-1.35l.22-.22a3.59,3.59,0,0,1,3.12-.64,3.91,3.91,0,0,1,2.14,2.33l-.07,1.71a2.27,2.27,0,0,1-.85,1.49,1.85,1.85,0,0,0-.35.5l.21.36.36.35,2.28,1.7c4.55,3.39,10.31,5.08,17.34,5.06q28.66-.09,28.62-24.8c0-10.87-6.59-20.3-25.79-27.7S694.3,59.26,694.27,46.76c0-10.51,1.58-17.34,6.6-22.75s12.9-8.35,23.34-8.38c9.31,1.39,14.65,4.79,18.57,9.32,1.92,2.2,2.85,4.18,2.86,6.45a7.31,7.31,0,0,1-.56,3.2l-.07.14a1.53,1.53,0,0,1-.49,1.14A2.94,2.94,0,0,1,743.17,37l-.21.14-1.49.22a3.47,3.47,0,0,1-2.78-2,8.66,8.66,0,0,1-.14-1.63A3.38,3.38,0,0,1,740.38,31a.47.47,0,0,0,.5-.35v-.43l-1.29-2.13a9.75,9.75,0,0,0-1.21-1.77,15.45,15.45,0,0,0-4-3.68c-3.7-2.33-8.82-3.45-15.35-3.43-13.07,0-20,7.8-20,23.14,0,10.58,4.52,15.54,25.07,22.86s28.18,19,28.23,33.8c.06,19-12,30.08-32.15,30.14-9,0-15.56-.95-19.69-2.92a15.49,15.49,0,0,1-7.76-7.37Z"/></g></g></svg>