<svg xmlns="http://www.w3.org/2000/svg" viewBox="0 0 647.07 99.32"><g id="Capa_2" data-name="Capa 2"><g id="Capa_1-2" data-name="Capa 1"><path d="M0,17.24V15.89l25.2-.08c10.84,0,18.3,4.21,22,10.83a20,20,0,0,1,2.84,10.3c0,5.83-4.72,11.94-11.45,15a29.21,29.21,0,0,1-12,2.3l-.81.11,25.8,39.25a7.56,7.56,0,0,0,6.81,3.6v1.4l-2.69.06-3.29.12q-3.65,0-7.95-5.16L36.08,81.33q-5.61-8.33-17.24-27l-7.61,0,.11,37.76.17,2a4,4,0,0,0,.71,1.94l.49.43a11.14,11.14,0,0,0,2,.53l2.65.26v1.4L.57,98.81V97.35a7.14,7.14,0,0,0,4-1,3.15,3.15,0,0,0,1-2.27l.21-2.64-.2-67.93a10.31,10.31,0,0,0-.12-1.4l-.16-1c-.38-2-1.14-3-3-3.39Zm13.82,1.41a3.09,3.09,0,0,0-2.47,2.49L11.14,24l.08,27.68,14.25,0c11.16,0,18-6.42,18-14.67,0-10.31-4.8-18.92-18.24-18.88C21.32,18.09,15.81,18,13.82,18.65Z"/><path d="M89.11,17.94c-2.59,0-4,.28-4.26.87a5.16,5.16,0,0,0-1.07,2.81l-.15,3.13.08,26.71,25.73-.08c3.83,0,5.07-1.8,5-8.27h2.21l.06,19h-2.05c0-5.61-1.54-8.41-5.26-8.4l-25.73.08.11,37.33.06,2c0,1.78.71,2.86,2.87,3.07l2.59.15,25-.08a20.88,20.88,0,0,0,5.07-.71c3.61-.93,4.9-1.74,6.78-5.2a32.39,32.39,0,0,0,1.88-3.89l2-.5-3.63,12.48-53.41.16v-1.4a7.22,7.22,0,0,0,4-1,3.13,3.13,0,0,0,1-2.26l.21-2.65-.21-68a9,9,0,0,0-.11-1.4l-.16-1c-.39-2-1.15-3-3-3.39L72.49,17v-1.3l53.73-.16,3.23,14.23-2.22-.64-2-4.74c-1.74-3.88-3.15-6.57-8.82-6.56Z"/><path d="M213.34,88.29c-4.08,6.7-15.4,11-26.35,11a42.69,42.69,0,0,1-36.92-21.57,42,42,0,0,1-5.78-21.35,44.72,44.72,0,0,1,19.9-36.86,39.38,39.38,0,0,1,22.21-6.43c10.85,0,18.57,2.91,22.73,6.3A13.25,13.25,0,0,1,213,23.66l-1.27,9-1.68-1c0-3.4-4.5-9.8-12.28-13.83a29.47,29.47,0,0,0-13.45-3c-12.73,0-23.12,8.76-28.8,21a42.19,42.19,0,0,0-4.26,17.82c0,11.39,3,21.95,10.18,30.13S182.23,97.07,192,97a3.23,3.23,0,0,0,.7.06c4.8,0,14.28-3.88,17.94-8.26l.16-.49a1,1,0,0,0-.59-.26c-.54-.06-1.14-.81-1.52-1.67a3.91,3.91,0,0,1-.11-.7,2,2,0,0,0,0-.49,2.52,2.52,0,0,1,1.67-1.84,2.62,2.62,0,0,1,2.48.59,2.7,2.7,0,0,1,.71.86l.32,1A5.87,5.87,0,0,1,213.34,88.29Z"/><path d="M244.5,17.47c-2.59,0-4,.28-4.26.87a5.08,5.08,0,0,0-1.07,2.81L239,24.28,239.09,51l25.74-.08c3.83,0,5.06-1.8,5.05-8.27h2.21l.06,19h-2c0-5.61-1.54-8.41-5.26-8.4l-25.74.08.11,37.33.06,2c0,1.78.72,2.85,2.87,3.06l2.59.16,25-.08a20.81,20.81,0,0,0,5.07-.71c3.61-.93,4.91-1.75,6.78-5.2A29.54,29.54,0,0,0,283.44,86l2.05-.5L281.86,98l-53.41.16v-1.4a7.2,7.2,0,0,0,4-1,3.19,3.19,0,0,0,1-2.27l.2-2.64-.2-68a10.48,10.48,0,0,0-.11-1.4l-.17-1c-.38-2-1.14-3-3-3.39l-2.21-.53v-1.3l53.74-.16,3.22,14.23-2.21-.64-2-4.74c-1.73-3.88-3.15-6.57-8.81-6.56Z"/><path d="M299.55,16.33V15L324.8,15c10.79,0,18.36,4.2,22.1,10.83a20,20,0,0,1,2.83,10.3c0,5.82-4.65,12-11.44,15a29.75,29.75,0,0,1-12.08,2.3c-.27.05-2.37.11-6.2.12l-9.23,0,.11,36.58a18.74,18.74,0,0,0,.34,3.94,2.26,2.26,0,0,0,.54,1.13l.81.64,1.68.38,2.64.26v1.4l-16.67.05V96.5a7.38,7.38,0,0,0,3.93-1,3.68,3.68,0,0,0,.91-2.27l.21-2.65-.2-68a9,9,0,0,0-.12-1.4c0-.38-.16-.91-.22-1.56a3.42,3.42,0,0,0-1.14-2,2.91,2.91,0,0,0-1.78-.81Zm11.19,5.58.09,28.91,15.32,0c6.42,0,10.3-1,12.94-4a15.38,15.38,0,0,0,4-10.69c0-10.31-4.75-18.93-18.29-18.89-7.34,0-11.44.25-12.25.63A3,3,0,0,0,311,20.18Z"/><path d="M433.12,87.63c-4.08,6.7-15.4,11-26.35,11a42.71,42.71,0,0,1-36.92-21.58,42,42,0,0,1-5.78-21.35A44.73,44.73,0,0,1,384,18.88a39.31,39.31,0,0,1,22.21-6.43c10.85,0,18.57,2.91,22.74,6.29A13.31,13.31,0,0,1,432.76,23l-1.27,9-1.68-1c0-3.4-4.5-9.81-12.28-13.83a29.22,29.22,0,0,0-13.45-3c-12.73,0-23.11,8.75-28.8,21A42.19,42.19,0,0,0,371,53c0,11.38,3,21.94,10.18,30.12S402,96.41,411.78,96.38a3.86,3.86,0,0,0,.7.05c4.8,0,14.28-3.87,17.94-8.26l.16-.48a1,1,0,0,0-.59-.27c-.54,0-1.14-.81-1.52-1.67a5.11,5.11,0,0,1-.11-.7,2,2,0,0,0,.05-.48,2.52,2.52,0,0,1,1.67-1.84,2.64,2.64,0,0,1,2.48.58,2.7,2.7,0,0,1,.71.86l.32,1A6,6,0,0,1,433.12,87.63Z"/><path d="M447.66,15.88V14.59l16.62-.05v1.29l-2.21.49c-1.78.44-2.64.93-3.06,3.46l-.21,2.86L459,90.78l.17,2c.22,1.67.76,2.59,2.86,3l2.49.21v1.4l-16.29,0v-1.4a7.11,7.11,0,0,0,4-1,3.21,3.21,0,0,0,1-2.27l.21-2.65-.21-68a10.64,10.64,0,0,0-.11-1.41l-.17-1c-.38-2-1.14-3-3-3.39Z"/><path d="M518,12.11c15.16,0,28.62,8.27,36.21,21.52a43.74,43.74,0,0,1-15,58.75,39.85,39.85,0,0,1-20.91,5.94,35.57,35.57,0,0,1-15.61-3.41A37.52,37.52,0,0,1,490,85.46a46.41,46.41,0,0,1-11.36-30.07c-.05-14.84,7.24-29.21,19.36-37.23A35.57,35.57,0,0,1,518,12.11ZM485.8,55.85c0,13.87,6.39,27,16.61,34.48a26.88,26.88,0,0,0,16.2,5.56c17.21,0,27.22-9.25,31.34-21.57A60.61,60.61,0,0,0,553,55a44,44,0,0,0-18.78-35.23c-5.46-3.76-10.75-5.63-15.82-5.61-15.16,0-24.85,9.19-29.29,22.1A60.29,60.29,0,0,0,485.8,55.85Zm30.13-46L519.13,0l5.78,0L521.7,9.83Z"/><path d="M640.83,19.83l-.05,1.94.23,75.1L583.42,18.76l.21,70.51.06,2,.17,1a4,4,0,0,0,3,3.06,5.65,5.65,0,0,0,2.16.37H590V97l-14.89,0v-1.4a8.31,8.31,0,0,0,4.75-1.31A3.74,3.74,0,0,0,581,92.25a12.17,12.17,0,0,0,.26-3l-.21-68.14c0-2.32-.66-3.93-1.95-4.85a6.23,6.23,0,0,0-2.43-.64l-2.59-.15V14.2l12.79,0,51.79,69.77-.19-62.53c0-1.51-.23-3.56-1.53-4.69a7.82,7.82,0,0,0-4.75-1.28V14l14.89,0v1.4h-.92a6.59,6.59,0,0,0-4,1.3A4,4,0,0,0,641,18.86Z"/></g></g></svg>